<svg width="18" height="18" viewBox="0 0 18 18" fill="none" xmlns="http://www.w3.org/2000/svg">
<g clip-path="url(#clip0_14_643)">
<path d="M2.99951 16.4974V2.99952C2.99951 2.8831 3.02662 2.76829 3.07868 2.66416C3.13074 2.56004 3.20633 2.46946 3.29946 2.39961C4.07827 1.81551 5.02553 1.49976 5.99904 1.49976C8.24868 1.49976 9.74845 2.99952 11.4979 2.99952C12.4978 2.99952 13.2644 2.79955 13.7978 2.39961C13.9092 2.31606 14.0417 2.26517 14.1804 2.25267C14.3191 2.24016 14.4585 2.26652 14.5831 2.3288C14.7077 2.39108 14.8124 2.48682 14.8856 2.60528C14.9588 2.72375 14.9976 2.86026 14.9976 2.99952V10.4983C14.9976 10.6148 14.9705 10.7296 14.9184 10.8337C14.8664 10.9378 14.7908 11.0284 14.6977 11.0982C13.9189 11.6823 12.9716 11.9981 11.9981 11.9981C9.74845 11.9981 8.24868 10.4983 5.99904 10.4983C4.8923 10.4984 3.8244 10.9063 2.99951 11.6442" stroke="white" stroke-width="1.49976" stroke-linecap="round" stroke-linejoin="round"/>
</g>
<defs>
<clipPath id="clip0_14_643">
<rect width="17.9972" height="17.9972" fill="white"/>
</clipPath>
</defs>
</svg>
