<svg width="18" height="18" viewBox="0 0 18 18" fill="none" xmlns="http://www.w3.org/2000/svg">
<g clip-path="url(#clip0_14_635)">
<path d="M14.2477 8.24878H3.7494C2.9211 8.24878 2.24963 8.92025 2.24963 9.74854V14.9977C2.24963 15.826 2.9211 16.4975 3.7494 16.4975H14.2477C15.076 16.4975 15.7475 15.826 15.7475 14.9977V9.74854C15.7475 8.92025 15.076 8.24878 14.2477 8.24878Z" stroke="#008236" stroke-width="1.49976" stroke-linecap="round" stroke-linejoin="round"/>
<path d="M5.24915 8.24881V5.24928C5.24821 4.31946 5.5928 3.42247 6.21602 2.73243C6.83925 2.04239 7.69663 1.60853 8.62174 1.51508C9.54685 1.42164 10.4737 1.67527 11.2223 2.22674C11.9709 2.77821 12.4879 3.58818 12.673 4.4994" stroke="#008236" stroke-width="1.49976" stroke-linecap="round" stroke-linejoin="round"/>
</g>
<defs>
<clipPath id="clip0_14_635">
<rect width="17.9972" height="17.9972" fill="white"/>
</clipPath>
</defs>
</svg>
