<svg width="18" height="18" viewBox="0 0 18 18" fill="none" xmlns="http://www.w3.org/2000/svg">
<g clip-path="url(#clip0_14_613)">
<path d="M11.9981 15.7476V14.2478C11.9981 13.4523 11.6821 12.6894 11.1196 12.1268C10.557 11.5643 9.7941 11.2483 8.99857 11.2483H4.49928C3.70376 11.2483 2.94082 11.5643 2.3783 12.1268C1.81578 12.6894 1.49976 13.4523 1.49976 14.2478V15.7476" stroke="#4A5565" stroke-width="1.49976" stroke-linecap="round" stroke-linejoin="round"/>
<path d="M11.9981 2.3457C12.6414 2.51248 13.2112 2.88815 13.6179 3.41375C14.0246 3.93935 14.2453 4.58512 14.2453 5.2497C14.2453 5.91429 14.0246 6.56006 13.6179 7.08566C13.2112 7.61126 12.6414 7.98693 11.9981 8.1537" stroke="#4A5565" stroke-width="1.49976" stroke-linecap="round" stroke-linejoin="round"/>
<path d="M16.4977 15.7482V14.2482C16.4972 13.5835 16.276 12.9378 15.8688 12.4124C15.4615 11.8871 14.8913 11.5119 14.2477 11.3457" stroke="#4A5565" stroke-width="1.49976" stroke-linecap="round" stroke-linejoin="round"/>
<path d="M6.74939 8.24976C8.40624 8.24976 9.74939 6.90661 9.74939 5.24976C9.74939 3.5929 8.40624 2.24976 6.74939 2.24976C5.09254 2.24976 3.74939 3.5929 3.74939 5.24976C3.74939 6.90661 5.09254 8.24976 6.74939 8.24976Z" stroke="#4A5565" stroke-width="1.49976" stroke-linecap="round" stroke-linejoin="round"/>
</g>
<defs>
<clipPath id="clip0_14_613">
<rect width="17.9972" height="17.9972" fill="white"/>
</clipPath>
</defs>
</svg>
